<?xml version="1.0" standalone="no"?><!DOCTYPE svg PUBLIC "-//W3C//DTD SVG 1.1//EN" "http://www.w3.org/Graphics/SVG/1.1/DTD/svg11.dtd"><svg t="1651988007435" class="icon" viewBox="0 0 1024 1024" version="1.1" xmlns="http://www.w3.org/2000/svg" p-id="10223" xmlns:xlink="http://www.w3.org/1999/xlink" width="200" height="200"><defs><style type="text/css">@font-face { font-family: feedback-iconfont; src: url("//at.alicdn.com/t/font_1031158_u69w8yhxdu.woff2?t=1630033759944") format("woff2"), url("//at.alicdn.com/t/font_1031158_u69w8yhxdu.woff?t=1630033759944") format("woff"), url("//at.alicdn.com/t/font_1031158_u69w8yhxdu.ttf?t=1630033759944") format("truetype"); }
</style></defs><path d="M256 448m-106.666667 0a106.666667 106.666667 0 1 0 213.333334 0 106.666667 106.666667 0 1 0-213.333334 0Z" fill="#FFA726" p-id="10224"></path><path d="M42.666667 740.266667s59.733333-134.4 213.333333-134.4 213.333333 134.4 213.333333 134.4V810.666667H42.666667v-70.4zM981.333333 740.266667s-59.733333-134.4-213.333333-134.4-213.333333 134.4-213.333333 134.4V810.666667h426.666666v-70.4z" fill="#455A64" p-id="10225"></path><path d="M512 362.666667m-128 0a128 128 0 1 0 256 0 128 128 0 1 0-256 0Z" fill="#FFB74D" p-id="10226"></path><path d="M768 727.466667s-70.4-160-256-160-256 160-256 160V810.666667h512v-83.2z" fill="#607D8B" p-id="10227"></path><path d="M768 448m-106.666667 0a106.666667 106.666667 0 1 0 213.333334 0 106.666667 106.666667 0 1 0-213.333334 0Z" fill="#FFA726" p-id="10228"></path><path d="M256 448m-106.666667 0a106.666667 106.666667 0 1 0 213.333334 0 106.666667 106.666667 0 1 0-213.333334 0Z" fill="#FFA726" p-id="10229"></path><path d="M768 448m-106.666667 0a106.666667 106.666667 0 1 0 213.333334 0 106.666667 106.666667 0 1 0-213.333334 0Z" fill="#FFA726" p-id="10230"></path></svg>