<?xml version="1.0" standalone="no"?><!DOCTYPE svg PUBLIC "-//W3C//DTD SVG 1.1//EN" "http://www.w3.org/Graphics/SVG/1.1/DTD/svg11.dtd"><svg t="1651988278950" class="icon" viewBox="0 0 1024 1024" version="1.1" xmlns="http://www.w3.org/2000/svg" p-id="13394" xmlns:xlink="http://www.w3.org/1999/xlink" width="200" height="200"><defs><style type="text/css">@font-face { font-family: feedback-iconfont; src: url("//at.alicdn.com/t/font_1031158_u69w8yhxdu.woff2?t=1630033759944") format("woff2"), url("//at.alicdn.com/t/font_1031158_u69w8yhxdu.woff?t=1630033759944") format("woff"), url("//at.alicdn.com/t/font_1031158_u69w8yhxdu.ttf?t=1630033759944") format("truetype"); }
</style></defs><path d="M917.3 993.734H95.794v-73.09L917.3 899.3z" fill="#F5F7FA" p-id="13395"></path><path d="M895.988 899.3h42.652v94.434h-42.652z" fill="#E6E9ED" p-id="13396"></path><path d="M938.64 981.296H106.668V853.3H64.014v149.34c0 11.782 9.532 21.344 21.312 21.344H938.64c11.782 0 21.344-9.562 21.344-21.344s-9.562-21.344-21.344-21.344z" fill="#AC92EB" p-id="13397"></path><path d="M938.64 0.016H85.326a21.3 21.3 0 0 0-21.312 21.312V917.3c0 11.782 9.532 21.34 21.312 21.34H938.64c11.782 0 21.344-9.558 21.344-21.34V21.33c0-11.782-9.562-21.314-21.344-21.314z" fill="#AC92EB" p-id="13398"></path><path d="M170.666 938.64V0.016h-85.34a21.3 21.3 0 0 0-21.312 21.312V1002.64c0 11.782 9.532 21.344 21.312 21.344h85.34v-42.688H106.668V938.64h63.998z" fill="#656D78" p-id="13399"></path><path d="M554.688 362.63l186.274-104.09a213.796 213.796 0 0 0-35.438-46.78c-83.308-83.31-218.366-83.31-301.676 0-83.31 83.31-83.31 218.4 0 301.71 83.31 83.308 218.368 83.308 301.676 0 14.25-14.25 26.062-30 35.438-46.75l-186.274-104.09z" fill="#FFCE54" p-id="13400"></path><path d="M591.058 271.072c-8.312 8.342-21.812 8.342-30.152 0-8.344-8.312-8.344-21.844 0-30.156 8.34-8.344 21.84-8.344 30.152 0 8.344 8.312 8.344 21.842 0 30.156zM809.114 725.304H297.132c-11.78 0-21.342-9.532-21.342-21.312 0-11.808 9.562-21.34 21.342-21.34h511.982c11.782 0 21.312 9.532 21.312 21.34a21.3 21.3 0 0 1-21.312 21.312zM681.122 810.644H425.128c-11.782 0-21.342-9.558-21.342-21.34s9.562-21.312 21.342-21.312h255.994c11.778 0 21.308 9.532 21.308 21.312s-9.532 21.34-21.308 21.34z" fill="#434A54" p-id="13401"></path></svg>