<?xml version="1.0" standalone="no"?><!DOCTYPE svg PUBLIC "-//W3C//DTD SVG 1.1//EN" "http://www.w3.org/Graphics/SVG/1.1/DTD/svg11.dtd"><svg t="1651988302132" class="icon" viewBox="0 0 1024 1024" version="1.1" xmlns="http://www.w3.org/2000/svg" p-id="15937" xmlns:xlink="http://www.w3.org/1999/xlink" width="200" height="200"><defs><style type="text/css">@font-face { font-family: feedback-iconfont; src: url("//at.alicdn.com/t/font_1031158_u69w8yhxdu.woff2?t=1630033759944") format("woff2"), url("//at.alicdn.com/t/font_1031158_u69w8yhxdu.woff?t=1630033759944") format("woff"), url("//at.alicdn.com/t/font_1031158_u69w8yhxdu.ttf?t=1630033759944") format("truetype"); }
</style></defs><path d="M898.900669 1022.007782H125.099331a17.5873 17.5873 0 0 1-17.583315-17.5873V19.579518A17.591284 17.591284 0 0 1 125.095346 1.992218h773.805323a17.5873 17.5873 0 0 1 17.591284 17.5873v984.844949a17.591284 17.591284 0 0 1-17.591284 17.583315z" fill="#EFF2FA" p-id="15938"></path><path d="M318.551658 125.095346a17.583315 17.583315 0 0 0-17.5873 17.5873v112.373043L228.108949 133.633992a17.579331 17.579331 0 0 0-32.664404 9.052638v175.865028a17.583315 17.583315 0 0 0 17.583315 17.583315 17.583315 17.583315 0 0 0 17.591284-17.583315V206.17463L303.466584 327.600311a17.583315 17.583315 0 0 0 32.664404-9.052638V142.68663a17.583315 17.583315 0 0 0-17.583315-17.591284zM476.825401 160.269946a17.583315 17.583315 0 0 0 17.591284-17.5873 17.583315 17.583315 0 0 0-17.591284-17.5873H388.892887a17.583315 17.583315 0 0 0-17.583315 17.5873v175.865027a17.583315 17.583315 0 0 0 17.583315 17.5873h87.936498a17.583315 17.583315 0 0 0 17.583315-17.5873 17.583315 17.583315 0 0 0-17.583315-17.587299H406.480187V248.198475h35.174599a17.583315 17.583315 0 0 0 17.5873-17.583315 17.583315 17.583315 0 0 0-17.5873-17.5873h-35.174599V160.269946h70.349198zM673.728249 125.441992c-9.582568-1.97628-18.798568 4.255377-20.69516 13.786148l-22.181354 110.930677-14.236389-42.693229c-0.131486-0.406412-0.446257-0.67337-0.60165-1.05986a17.145027 17.145027 0 0 0-1.785027-3.115829c-0.625556-0.91642-1.215253-1.812918-1.988233-2.581915-0.753058-0.753058-1.621665-1.322833-2.514179-1.936435a17.09323 17.09323 0 0 0-3.203487-1.832841c-0.374537-0.151409-0.63751-0.45821-1.024-0.589696-0.649463-0.21516-1.298926-0.103595-1.956358-0.239066a16.901977 16.901977 0 0 0-3.609898-0.450242c-1.251113 0-2.410584 0.187268-3.613884 0.446257-0.649463 0.139455-1.302911 0.027891-1.952373 0.243051-0.38649 0.127502-0.645479 0.430319-1.020016 0.585712a16.933852 16.933852 0 0 0-3.211455 1.840809c-0.892514 0.613603-1.753152 1.179393-2.50621 1.928467-0.772981 0.772981-1.362677 1.665494-1.992218 2.589883a17.152996 17.152996 0 0 0-1.781043 3.115829c-0.159377 0.382506-0.474148 0.653447-0.605634 1.051891l-14.232405 42.697214-22.185338-110.922708c-1.896591-9.53077-11.132514-15.766412-20.69516-13.790132a17.579331 17.579331 0 0 0-13.790132 20.695159l35.174599 175.865027c0.1793 0.91642 0.665401 1.657525 0.976187 2.510195 0.31477 0.8447 0.533914 1.681432 0.968218 2.47035 0.70923 1.290957 1.641588 2.374724 2.633712 3.426615 0.466179 0.498054 0.80884 1.071813 1.334786 1.514086 1.66151 1.406506 3.546148 2.50621 5.618054 3.219424 0.055782 0.015938 0.091642 0.059767 0.147424 0.079688 1.753152 0.589696 3.534195 0.836732 5.283362 0.868607 0.091642 0 0.171331 0.043829 0.262973 0.043829h0.043829c1.127595-0.003984 2.271128-0.103595 3.42263-0.338677 0.278911-0.059767 0.482117-0.251019 0.757043-0.318755 1.753152-0.438288 3.394739-1.123611 4.924763-2.059953 0.278911-0.171331 0.609619-0.255004 0.876576-0.442272a17.451829 17.451829 0 0 0 4.327097-4.370926c0.358599-0.506023 0.549852-1.083767 0.848685-1.629635 0.525946-0.936342 1.147518-1.804949 1.498148-2.860825l18.487782-55.463346 18.487782 55.463346c0.354615 1.055875 0.972202 1.924482 1.494163 2.860825 0.302817 0.545868 0.49407 1.119626 0.852669 1.629635 1.207284 1.717292 2.641681 3.207471 4.323113 4.370926 0.266957 0.187268 0.597665 0.270942 0.876576 0.438288 1.534008 0.940327 3.171611 1.629634 4.924763 2.063937 0.278911 0.067735 0.478132 0.262973 0.757043 0.318755 1.155486 0.235082 2.299019 0.334693 3.426614 0.334693l0.023907 0.007969h0.015938c0.091642 0 0.171331-0.043829 0.258988-0.047814 1.753152-0.027891 3.534195-0.278911 5.291331-0.868607 0.051798-0.015938 0.087658-0.063751 0.139455-0.079688a17.611206 17.611206 0 0 0 5.622039-3.219424c0.525946-0.442272 0.868607-1.016031 1.330801-1.514086 0.996109-1.055875 1.928467-2.131673 2.637697-3.426615 0.434304-0.788918 0.657432-1.629634 0.964233-2.47035 0.31477-0.848685 0.800872-1.593774 0.980172-2.510195l35.174599-175.869011a17.571362 17.571362 0 0 0-13.786148-20.69516zM784.591191 213.02786H767.003891a26.40884 26.40884 0 0 1-26.376965-26.376965c0-14.543191 11.833774-26.376965 26.376965-26.376965h43.968249a17.583315 17.583315 0 0 0 17.583315-17.591284 17.583315 17.583315 0 0 0-17.583315-17.5873H767.003891c-33.939424 0-61.551564 27.620109-61.551564 61.555549S733.068451 248.206444 767.003891 248.206444h17.5873c14.547175 0 26.376965 11.833774 26.376965 26.376965s-11.833774 26.376965-26.376965 26.376965h-61.551565a17.583315 17.583315 0 0 0-17.591284 17.587299 17.583315 17.583315 0 0 0 17.591284 17.591284h61.551565c33.939424 0 61.555549-27.620109 61.555548-61.555548s-27.616125-61.555549-61.555548-61.555549z" fill="#FF7878" p-id="15939"></path><path d="M828.555455 406.480187H195.444545a17.583315 17.583315 0 0 1-17.583315-17.5873 17.583315 17.583315 0 0 1 17.583315-17.587299h633.114895a17.583315 17.583315 0 0 1 17.587299 17.587299 17.579331 17.579331 0 0 1-17.583315 17.5873zM828.555455 89.924732H195.444545a17.583315 17.583315 0 0 1-17.583315-17.5873 17.583315 17.583315 0 0 1 17.583315-17.5873h633.114895a17.583315 17.583315 0 0 1 17.587299 17.5873 17.579331 17.579331 0 0 1-17.583315 17.5873z" fill="#64A0FF" p-id="15940"></path><path d="M441.654786 740.626926H195.444545a17.5873 17.5873 0 0 1-17.591284-17.591284v-263.797541a17.5873 17.5873 0 0 1 17.591284-17.583315h246.210241a17.5873 17.5873 0 0 1 17.5873 17.583315v263.797541a17.591284 17.591284 0 0 1-17.5873 17.591284z" fill="#959CB3" p-id="15941"></path><path d="M195.444545 740.626926h246.210241a17.5873 17.5873 0 0 0 17.5873-17.591284v-22.241121c-2.087844-1.227206-4.099984-2.569961-6.462755-3.362863l-81.469759-27.15393H265.789759L184.32 697.435642c-2.366755 0.784934-4.374911 2.131673-6.462755 3.358879v22.241121a17.5873 17.5873 0 0 0 17.583315 17.591284z" fill="#707487" p-id="15942"></path><path d="M388.892887 582.345214h-140.690428v-52.761899c0-29.138179 23.619735-52.757914 52.761899-52.757914h35.170615c29.138179 0 52.757914 23.619735 52.757914 52.761899v52.757914z" fill="#464655" p-id="15943"></path><path d="M318.551658 723.035642c-29.138179 0-52.761899-23.619735-52.761899-52.757914v-52.761899H371.309572v52.761899c0 29.138179-23.619735 52.761899-52.757914 52.761898z" fill="#AFB9D2" p-id="15944"></path><path d="M248.202459 547.170615v69.110039c0 11.762054 5.422817 22.74316 14.459518 29.265681l26.05821 18.826459a30.723984 30.723984 0 0 0 18.00965 5.904934h23.627704a30.716016 30.716016 0 0 0 18.00965-5.904934l26.062194-18.826459c9.032716-6.522521 14.459518-17.503626 14.459518-29.265681v-51.52274c-87.928529 0-140.686444-17.5873-140.686444-17.587299z" fill="#C7CFE2" p-id="15945"></path><path d="M828.555455 529.5873H512a17.5873 17.5873 0 0 1-17.5873-17.5873v-52.761899a17.5873 17.5873 0 0 1 17.5873-17.583315h316.555455a17.5873 17.5873 0 0 1 17.591284 17.583315V512a17.591284 17.591284 0 0 1-17.591284 17.5873z" fill="#FF7878" p-id="15946"></path><path d="M828.555455 740.626926H512a17.5873 17.5873 0 0 1 0-35.174599h316.555455a17.591284 17.591284 0 0 1 0 35.174599zM828.555455 810.97214H195.444545a17.5873 17.5873 0 0 1 0-35.174599h633.114895a17.5873 17.5873 0 1 1 0 35.174599zM828.555455 881.317354H195.444545a17.5873 17.5873 0 0 1 0-35.174599h633.114895a17.5873 17.5873 0 1 1 0 35.174599zM828.555455 951.662568H195.444545a17.5873 17.5873 0 0 1 0-35.174599h633.114895a17.5873 17.5873 0 1 1 0 35.174599zM828.555455 670.277728H512a17.5873 17.5873 0 0 1 0-35.1746h316.555455a17.5873 17.5873 0 0 1 0 35.1746zM828.555455 599.932514H512a17.5873 17.5873 0 0 1 0-35.1746h316.555455a17.591284 17.591284 0 0 1 0 35.1746z" fill="#959CB3" p-id="15947"></path></svg>