<?xml version="1.0" standalone="no"?><!DOCTYPE svg PUBLIC "-//W3C//DTD SVG 1.1//EN" "http://www.w3.org/Graphics/SVG/1.1/DTD/svg11.dtd"><svg t="1651988321427" class="icon" viewBox="0 0 1024 1024" version="1.1" xmlns="http://www.w3.org/2000/svg" p-id="19599" xmlns:xlink="http://www.w3.org/1999/xlink" width="200" height="200"><defs><style type="text/css">@font-face { font-family: feedback-iconfont; src: url("//at.alicdn.com/t/font_1031158_u69w8yhxdu.woff2?t=1630033759944") format("woff2"), url("//at.alicdn.com/t/font_1031158_u69w8yhxdu.woff?t=1630033759944") format("woff"), url("//at.alicdn.com/t/font_1031158_u69w8yhxdu.ttf?t=1630033759944") format("truetype"); }
</style></defs><path d="M237.037037 104.296296h502.518519c20.859259 0 37.925926 17.066667 37.925925 37.925926v739.555556c0 20.859259-17.066667 37.925926-37.925925 37.925926h-502.518519c-20.859259 0-37.925926-17.066667-37.925926-37.925926v-739.555556c0-20.859259 17.066667-37.925926 37.925926-37.925926z" fill="#FF884D" p-id="19600"></path><path d="M170.666667 274.962963h75.851852c10.42963 0 18.962963 8.533333 18.962962 18.962963s-8.533333 18.962963-18.962962 18.962963h-75.851852c-10.42963 0-18.962963-8.533333-18.962963-18.962963s8.533333-18.962963 18.962963-18.962963zM170.666667 417.185185h75.851852c10.42963 0 18.962963 8.533333 18.962962 18.962963s-8.533333 18.962963-18.962962 18.962963h-75.851852c-10.42963 0-18.962963-8.533333-18.962963-18.962963s8.533333-18.962963 18.962963-18.962963zM170.666667 559.407407h75.851852c10.42963 0 18.962963 8.533333 18.962962 18.962963s-8.533333 18.962963-18.962962 18.962963h-75.851852c-10.42963 0-18.962963-8.533333-18.962963-18.962963s8.533333-18.962963 18.962963-18.962963zM170.666667 701.62963h75.851852c10.42963 0 18.962963 8.533333 18.962962 18.962963s-8.533333 18.962963-18.962962 18.962963h-75.851852c-10.42963 0-18.962963-8.533333-18.962963-18.962963s8.533333-18.962963 18.962963-18.962963z" fill="#FFAA80" p-id="19601"></path><path d="M654.222222 398.222222h132.740741c10.42963 0 18.962963 8.533333 18.962963 18.962963v75.851852c0 10.42963-8.533333 18.962963-18.962963 18.962963h-132.740741c-10.42963 0-18.962963-8.533333-18.962963-18.962963v-75.851852c0-10.42963 8.533333-18.962963 18.962963-18.962963z" fill="#FFBB99" p-id="19602"></path></svg>