<?xml version="1.0" standalone="no"?><!DOCTYPE svg PUBLIC "-//W3C//DTD SVG 1.1//EN" "http://www.w3.org/Graphics/SVG/1.1/DTD/svg11.dtd"><svg t="1651988380483" class="icon" viewBox="0 0 1024 1024" version="1.1" xmlns="http://www.w3.org/2000/svg" p-id="19765" xmlns:xlink="http://www.w3.org/1999/xlink" width="200" height="200"><defs><style type="text/css">@font-face { font-family: feedback-iconfont; src: url("//at.alicdn.com/t/font_1031158_u69w8yhxdu.woff2?t=1630033759944") format("woff2"), url("//at.alicdn.com/t/font_1031158_u69w8yhxdu.woff?t=1630033759944") format("woff"), url("//at.alicdn.com/t/font_1031158_u69w8yhxdu.ttf?t=1630033759944") format("truetype"); }
</style></defs><path d="M665.3 897.5H205c-46.2 0-83.7-37.6-83.7-83.7v-23.5c0-13.8 11.2-25 25-25h519c13.8 0 25 11.2 25 25s-11.2 25-25 25h-494c0.8 17.9 15.6 32.2 33.7 32.2h460.3c13.8 0 25 11.2 25 25s-11.2 25-25 25zM874.3 735.4h-728c-13.8 0-25-11.2-25-25v-72.8c0-46.2 37.6-83.7 83.7-83.7h134.7c22 0 39.9-17.9 39.9-39.9v-4.6c0-11.2-4.6-21.8-12.6-29.1-44.2-40.3-69.6-97.6-69.6-157.4 0-55.6 21.3-108.2 59.9-148.1 38.6-39.8 90.2-62.8 145.5-64.7 58.2-2 113.2 19 154.9 59s64.9 94 65.3 152.1c0.5 60.4-24.9 118.4-69.6 159.1-8 7.3-12.6 17.9-12.6 29.1v4.6c0 22 17.9 39.9 39.9 39.9h134.7c46.2 0 83.7 37.6 83.7 83.7v72.8c0.2 13.8-11 25-24.8 25z m-703-50h678v-47.8c0-18.6-15.1-33.7-33.7-33.7H680.9c-49.6 0-89.9-40.3-89.9-89.9v-4.6c0-25.3 10.5-49.3 28.9-66 34.2-31.1 53.6-75.5 53.3-121.8-0.3-44.5-18.1-85.8-49.9-116.4-31.9-30.6-74-46.6-118.6-45.1-88.1 3-157.2 74.5-157.2 162.8 0 45.7 19.4 89.6 53.2 120.4 18.4 16.8 29 40.9 29 66.1v4.6c0 49.6-40.3 89.9-89.9 89.9H205c-18.6 0-33.7 15.1-33.7 33.7v47.8zM777.7 913.9c-6.4 0-12.8-2.4-17.6-7.3l-47.7-47.8c-4.9-4.9-7.3-11.3-7.3-17.7 0-6.4 2.4-12.8 7.3-17.7 9.8-9.8 25.6-9.8 35.4 0l30.1 30.1 82.3-82.3c9.8-9.8 25.6-9.8 35.4 0 9.8 9.8 9.8 25.6 0 35.4l-100 100c-5.1 4.9-11.5 7.3-17.9 7.3z" fill="#333333" p-id="19766"></path></svg>