<?xml version="1.0" standalone="no"?><!DOCTYPE svg PUBLIC "-//W3C//DTD SVG 1.1//EN" "http://www.w3.org/Graphics/SVG/1.1/DTD/svg11.dtd"><svg t="1651988419611" class="icon" viewBox="0 0 1024 1024" version="1.1" xmlns="http://www.w3.org/2000/svg" p-id="21657" xmlns:xlink="http://www.w3.org/1999/xlink" width="200" height="200"><defs><style type="text/css">@font-face { font-family: feedback-iconfont; src: url("//at.alicdn.com/t/font_1031158_u69w8yhxdu.woff2?t=1630033759944") format("woff2"), url("//at.alicdn.com/t/font_1031158_u69w8yhxdu.woff?t=1630033759944") format("woff"), url("//at.alicdn.com/t/font_1031158_u69w8yhxdu.ttf?t=1630033759944") format("truetype"); }
</style></defs><path d="M509.213605 974.541497c-7.662585 0-13.931973-6.269388-13.931972-13.931973v-169.27347c0-7.662585 6.269388-13.931973 13.931972-13.931972s13.931973 6.269388 13.931973 13.931972v169.27347c0 7.662585-5.572789 13.931973-13.931973 13.931973z" fill="#4988FD" p-id="21658"></path><path d="M908.364626 94.737415v594.198639c0 69.659864-56.42449 126.084354-126.084354 126.084354H236.146939c-69.659864 0-126.084354-56.42449-126.084354-126.084354V94.737415h798.302041z" fill="#DFECFD" p-id="21659"></path><path d="M110.759184 94.737415h798.30204v73.839456H110.759184z" fill="#C5DCFA" p-id="21660"></path><path d="M918.117007 124.691156H101.703401C68.963265 124.691156 41.795918 98.220408 41.795918 64.783673 41.795918 32.043537 68.266667 4.87619 101.703401 4.87619h816.413606c32.740136 0 59.907483 26.470748 59.907483 59.907483-0.696599 33.436735-27.167347 59.907483-59.907483 59.907483z" fill="#6097FD" p-id="21661"></path><path d="M509.213605 976.631293m-43.885714 0a43.885714 43.885714 0 1 0 87.771429 0 43.885714 43.885714 0 1 0-87.771429 0Z" fill="#6097FD" p-id="21662"></path><path d="M489.708844 293.964626c-100.310204 0.696599-181.812245 82.198639-181.812245 183.205442S390.095238 660.37551 491.102041 660.37551c100.310204 0 182.508844-80.805442 183.205442-181.812245H489.708844V293.964626z" fill="#4988FD" p-id="21663"></path><path d="M546.829932 238.236735h-1.393197v184.598639h184.598639v-1.393197C730.035374 320.435374 647.836735 238.236735 546.829932 238.236735z" fill="#21D3AC" p-id="21664"></path></svg>