<?xml version="1.0" standalone="no"?><!DOCTYPE svg PUBLIC "-//W3C//DTD SVG 1.1//EN" "http://www.w3.org/Graphics/SVG/1.1/DTD/svg11.dtd"><svg t="1651987992810" class="icon" viewBox="0 0 1024 1024" version="1.1" xmlns="http://www.w3.org/2000/svg" p-id="9685" xmlns:xlink="http://www.w3.org/1999/xlink" width="200" height="200"><defs><style type="text/css">@font-face { font-family: feedback-iconfont; src: url("//at.alicdn.com/t/font_1031158_u69w8yhxdu.woff2?t=1630033759944") format("woff2"), url("//at.alicdn.com/t/font_1031158_u69w8yhxdu.woff?t=1630033759944") format("woff"), url("//at.alicdn.com/t/font_1031158_u69w8yhxdu.ttf?t=1630033759944") format("truetype"); }
</style></defs><path d="M495.964481 1023.97952c-49.355813 0-91.113698-14.397152-124.106318-42.822824-33.217896-28.609988-50.072599-62.032679-50.072599-99.346493 0-18.124438 6.594428-33.750365 19.619448-46.447711 13.229815-12.922622 29.777324-19.742325 47.840323-19.742325 18.00156 0 34.200916 6.410112 46.816344 18.534029 12.472071 11.98056 18.800264 27.831763 18.800264 47.103058 0 11.325213-1.843163 23.817764-5.48853 37.149977-3.624888 13.168377-4.382632 19.947121-4.382632 23.285294 0 3.686326 0.921582 8.068959 7.782244 12.758785 12.758785 8.826703 28.057039 13.086458 46.877782 13.086458 22.568509 0 42.720426-7.864163 61.582128-24.02256 18.574989-15.933121 27.606488-32.316794 27.606488-50.052119 0-19.742325-5.263255-36.822304-16.117438-52.243435-18.329233-25.763325-52.878302-55.950241-102.602748-89.659647-79.849923-53.451731-133.076378-99.756085-162.566989-141.51397-22.896182-32.685426-34.467151-67.889842-34.467151-104.712146 0-37.068059 12.144397-73.951801 36.085038-109.627247 20.50007-30.555549 50.789384-58.121078 90.233075-82.143637-21.093978-22.691386-36.904222-44.072079-47.103058-63.691526-12.881662-24.759825-19.394172-50.379792-19.394172-76.122638 0-47.819844 18.902662-89.168137 56.195996-122.877542 37.313814-33.750365 83.863923-50.871303 138.319154-50.871303 50.093078 0 92.199116 14.089958 125.171257 41.860283 33.320294 28.077518 50.215956 60.906302 50.215956 97.544289 0 18.656907-6.98354 35.368253-20.766305 49.663007l-0.266235 0.286714c-7.966561 7.925601-22.609468 17.366693-47.041619 17.366693-19.148417 0-35.941681-6.266755-48.536629-18.144917-12.553989-11.796244-18.923142-25.927161-18.923142-41.962681 0-6.942581 1.699806-17.407652 5.345173-32.972141 1.781724-7.372653 2.662347-14.151397 2.662347-20.254315 0-10.342193-3.727285-18.267795-11.714326-24.964621-8.273755-6.922102-20.110958-10.301234-36.146477-10.301234-24.862223 0-45.280374 7.556969-62.401312 23.121458-17.182376 15.605448-25.538049 34.078038-25.538049 56.50319 0 20.151917 4.566949 36.760865 13.577968 49.355813 17.120938 23.940641 46.795864 49.785884 88.226075 76.839423 84.171117 54.578108 142.906582 104.671187 174.50659 148.825183 23.346733 33.115498 35.142977 68.340393 35.142977 104.794064 0 36.597028-11.878162 73.50125-35.327293 109.668207-20.213356 31.169937-50.727945 59.267935-90.888422 83.700086 22.179396 23.469611 37.805324 44.031119 47.553609 62.544669 12.082958 22.9781 18.206356 48.045119 18.206356 74.545709 0 49.663007-18.923142 91.850963-56.236955 125.417012-37.334293 33.545569-83.863923 50.564109-138.278194 50.564109zM446.424352 356.344873c-48.229435 28.958141-71.719526 62.196516-71.719526 101.312534 0 22.752825 6.49203 43.130017 19.865203 62.278434 19.926641 27.934161 59.267935 62.053159 116.795104 101.292054 24.350233 16.588468 46.365793 32.705906 65.596128 48.065599 49.069099-29.51109 72.948301-62.360353 72.948301-100.186156 0-20.602468-8.150877-42.781864-24.206876-65.923802-16.813744-24.186396-52.857823-55.786404-107.128737-93.919402-28.323274-19.558009-52.550629-37.334293-72.170077-52.939741z" p-id="9686"></path></svg>