<?xml version="1.0" standalone="no"?><!DOCTYPE svg PUBLIC "-//W3C//DTD SVG 1.1//EN" "http://www.w3.org/Graphics/SVG/1.1/DTD/svg11.dtd"><svg t="1651989977785" class="icon" viewBox="0 0 1024 1024" version="1.1" xmlns="http://www.w3.org/2000/svg" p-id="25019" xmlns:xlink="http://www.w3.org/1999/xlink" width="200" height="200"><defs><style type="text/css">@font-face { font-family: feedback-iconfont; src: url("//at.alicdn.com/t/font_1031158_u69w8yhxdu.woff2?t=1630033759944") format("woff2"), url("//at.alicdn.com/t/font_1031158_u69w8yhxdu.woff?t=1630033759944") format("woff"), url("//at.alicdn.com/t/font_1031158_u69w8yhxdu.ttf?t=1630033759944") format("truetype"); }
</style></defs><path d="M557.568 646.144c-5.12 19.456-0.512 40.448 14.848 55.808l27.648 27.648c13.312 13.312 30.72 20.48 49.152 20.48 18.432 0 35.84-7.168 49.152-20.48l162.304-162.304c13.312-13.312 20.48-30.72 20.48-49.152 0-18.432-7.168-35.84-20.48-49.152l-29.696-29.696c-15.872-15.872-39.424-19.968-58.88-11.776L534.016 189.44c8.192-19.456 4.096-43.008-11.776-58.88l-29.696-29.696c-27.136-27.136-71.168-27.136-98.304 0L231.936 263.168c-27.136 27.136-27.136 71.168 0 98.304l27.136 27.136c10.752 10.752 25.088 16.896 40.448 16.896 5.12 0 10.24-0.512 15.36-2.048L378.88 467.456l-294.4 294.4c-11.264 11.264-17.408 26.112-17.408 42.496s6.144 31.232 17.408 42.496l34.304 34.304c11.264 11.264 26.624 17.408 41.472 17.408 14.848 0 30.208-5.632 41.472-17.408L496.64 586.24l60.928 59.904z m261.632-128.512c0 1.536-0.512 3.584-2.56 5.632l-162.304 162.304c-2.048 2.048-4.096 2.56-5.632 2.56-1.536 0-3.584-0.512-5.632-2.56l-24.576-24.576 173.568-173.568 24.576 24.576c2.048 1.536 2.56 4.096 2.56 5.632zM274.944 306.688l162.304-162.304c1.536-1.536 3.584-2.56 5.632-2.56s4.096 1.024 5.632 2.56l24.576 24.576-173.568 173.568-24.576-24.576c-3.072-3.072-3.072-8.192 0-11.264z m200.704 214.016l-314.88 314.88-31.232-31.232 314.88-314.88c11.776-11.776 11.776-31.232 0-43.52L363.52 365.568 493.568 235.52l231.936 231.936-129.536 129.536-76.288-76.288c-12.288-11.776-31.744-11.776-44.032 0z" p-id="25020"></path><path d="M835.072 791.552h-311.296c-67.072 0-121.856 54.784-121.856 121.856 0 16.896 13.824 30.72 30.72 30.72h492.544c16.896 0 30.72-13.824 30.72-30.72 1.024-67.584-53.76-121.856-120.832-121.856z m-362.496 90.624c10.752-17.408 29.696-29.696 51.712-29.696h311.296c22.016 0 40.96 11.776 51.712 29.696h-414.72z" p-id="25021"></path></svg>