<?xml version="1.0" standalone="no"?><!DOCTYPE svg PUBLIC "-//W3C//DTD SVG 1.1//EN" "http://www.w3.org/Graphics/SVG/1.1/DTD/svg11.dtd"><svg t="1650979644348" class="icon" viewBox="0 0 1024 1024" version="1.1" xmlns="http://www.w3.org/2000/svg" p-id="9116" xmlns:xlink="http://www.w3.org/1999/xlink" width="200" height="200"><defs><style type="text/css">@font-face { font-family: feedback-iconfont; src: url("//at.alicdn.com/t/font_1031158_u69w8yhxdu.woff2?t=1630033759944") format("woff2"), url("//at.alicdn.com/t/font_1031158_u69w8yhxdu.woff?t=1630033759944") format("woff"), url("//at.alicdn.com/t/font_1031158_u69w8yhxdu.ttf?t=1630033759944") format("truetype"); }
</style></defs><path d="M783.990234 312.512716c-117.296439 0-235.009563 0.208342-352.09766 0.208342v-56.668973-0.208341h-127.921872v56.877314c-21.459207 0-42.501729-0.208342-63.960936-0.208342-5.000203 0-16.042319 2.916785-16.042319 9.375382v260.635605l32.29298-155.214649c5.000203-23.750966 22.084232-43.335097 47.710275-43.335097H800.032553v-62.085859c0-1.875076-1.250051-3.750153-3.333469-5.416887-2.916785-2.500102-7.500305-3.958494-12.70885-3.958495z" fill="#FBC02D" p-id="9117"></path><path d="M192.09115 737.321668V338.138759c0-12.083825 6.041913-22.709257 15.625635-30.417904 8.542014-6.666938 20.000814-11.042116 32.501323-11.042116h32.084639v-24.584334c0-8.750356 3.541811-16.875687 9.375381-22.709257 5.833571-5.833571 13.75056-9.583723 22.709258-9.583724h127.921871c8.750356 0 16.875687 3.750153 22.709258 9.583724 5.833571 5.833571 9.375381 13.958901 9.375381 22.709257v24.584334h320.013022c12.500509 0 23.959308 4.166836 32.501322 11.042116 9.583723 7.500305 15.625636 18.334079 15.625636 30.417904V400.016277H800.032553v-61.877518c0-1.875076-1.250051-3.750153-3.333469-5.416887-3.125127-2.500102-7.500305-3.958494-12.70885-3.958495H463.977213v0.208342h-32.084639v-56.668972-0.208342h-127.921872v56.877314h-32.084639v-0.208342h-32.084639c-5.208545 0-9.583723 1.458393-12.70885 3.958495-2.083418 1.666734-3.333469 3.541811-3.333469 5.416887v399.182909H192.09115z" fill="#F9A825" p-id="9118"></path><path d="M579.606918 525.438047h195.841302V176.04883H519.396134v288.345066z" fill="#BDBDBD" p-id="9119"></path><path d="M690.028077 491.26999h-53.960529l53.960529 53.960529z" fill="#BDBDBD" p-id="9120"></path><path d="M552.939166 552.105799h206.466734V192.09115H489.394914v296.88708z" fill="#E0E0E0" p-id="9121"></path><path d="M714.404069 398.974568h-171.048626v18.125737h171.048626zM714.404069 327.096643h-171.048626v17.917396h171.048626zM714.404069 255.010376h-171.048626v17.917396h171.048626zM545.855544 491.26999h-54.168871l54.168871 53.960529z" fill="#BDBDBD" p-id="9122"></path><path d="M303.970702 383.973957H847.95117c3.333469 0 6.87528 0.416684 10.41709 1.041709 9.583723 2.083418 18.750763 6.87528 25.626043 13.333876 7.500305 7.291963 12.500509 17.084028 12.500509 27.917803 0 2.29176-0.208342 4.791862-0.833367 7.291963l-63.960936 306.679146c-2.500102 11.667141-7.916989 22.709257-16.250662 30.834588-8.125331 7.708647-18.750763 12.70885-31.459613 12.70885H240.009766c-3.333469 0-6.87528-0.416684-10.417091-1.041709-9.583723-2.083418-18.750763-6.87528-25.626042-13.333876-7.708647-7.500305-12.500509-17.084028-12.500509-27.917802 0-2.29176 0.208342-4.791862 0.833367-7.291964L256.260427 427.517396c2.500102-11.667141 7.916989-22.709257 16.250662-30.834588 8.333672-7.916989 18.750763-12.70885 31.459613-12.708851z" fill="#F9A825" p-id="9123"></path></svg>