<?xml version="1.0" standalone="no"?><!DOCTYPE svg PUBLIC "-//W3C//DTD SVG 1.1//EN" "http://www.w3.org/Graphics/SVG/1.1/DTD/svg11.dtd"><svg t="1649205728704" class="icon" viewBox="0 0 1024 1024" version="1.1" xmlns="http://www.w3.org/2000/svg" p-id="2214" xmlns:xlink="http://www.w3.org/1999/xlink" width="200" height="200"><defs><style type="text/css"></style></defs><path d="M512 682.666667c-93.866667 0-170.666667-76.8-170.666667-170.666667s76.8-170.666667 170.666667-170.666667 170.666667 76.8 170.666667 170.666667-76.8 170.666667-170.666667 170.666667z m0-256c-46.933333 0-85.333333 38.4-85.333333 85.333333s38.4 85.333333 85.333333 85.333333 85.333333-38.4 85.333333-85.333333-38.4-85.333333-85.333333-85.333333z" p-id="2215"></path><path d="M516.266667 1024c-72.533333 0-128-55.466667-128-128 0-12.8-8.533333-25.6-17.066667-29.866667-12.8-4.266667-25.6-4.266667-34.133333 4.266667-51.2 51.2-132.266667 51.2-183.466667 4.266667-25.6-25.6-38.4-55.466667-38.4-89.6s12.8-68.266667 38.4-89.6c8.533333-8.533333 12.8-21.333333 8.533333-34.133334-4.266667-8.533333-12.8-17.066667-25.6-17.066666H128c-72.533333 0-128-55.466667-128-128s55.466667-128 128-128c12.8 0 25.6-8.533333 29.866667-17.066667 4.266667-12.8 4.266667-25.6-4.266667-34.133333-55.466667-51.2-55.466667-132.266667-4.266667-183.466667 51.2-51.2 132.266667-51.2 179.2 0 12.8 8.533333 25.6 12.8 34.133334 8.533333 4.266667 0 4.266667 0 8.533333-4.266666 8.533333-4.266667 12.8-12.8 12.8-21.333334V128c0-72.533333 55.466667-128 128-128s128 55.466667 128 128c0 12.8 8.533333 25.6 17.066667 29.866667 12.8 4.266667 21.333333 4.266667 29.866666-4.266667 25.6-25.6 59.733333-38.4 93.866667-38.4 34.133333 0 64 12.8 89.6 38.4 51.2 51.2 51.2 132.266667 0 179.2-8.533333 8.533333-12.8 21.333333-8.533333 34.133333 0 4.266667 0 4.266667 4.266666 8.533334s12.8 8.533333 21.333334 8.533333h8.533333c72.533333 0 128 55.466667 128 128s-55.466667 128-128 128c-12.8 0-25.6 8.533333-29.866667 17.066667-4.266667 8.533333-4.266667 21.333333 4.266667 29.866666 51.2 51.2 51.2 132.266667 4.266667 183.466667-51.2 51.2-132.266667 51.2-179.2 0-8.533333-8.533333-21.333333-12.8-34.133334-8.533333-8.533333 4.266667-17.066667 12.8-17.066666 25.6v8.533333c0 72.533333-59.733333 128-128 128z m-162.133334-243.2c17.066667 0 29.866667 4.266667 46.933334 8.533333 42.666667 17.066667 68.266667 55.466667 72.533333 102.4v4.266667c0 25.6 17.066667 42.666667 42.666667 42.666667s42.666667-17.066667 42.666666-42.666667v-8.533333c0-46.933333 25.6-85.333333 68.266667-102.4 42.666667-17.066667 89.6-8.533333 123.733333 21.333333 12.8 12.8 21.333333 17.066667 34.133334 17.066667 12.8 0 21.333333-4.266667 29.866666-12.8 8.533333-8.533333 12.8-17.066667 12.8-29.866667 0-12.8-4.266667-21.333333-12.8-29.866667-34.133333-34.133333-42.666667-85.333333-25.6-128s59.733333-68.266667 102.4-68.266666c25.6 0 46.933333-17.066667 46.933334-42.666667s-17.066667-42.666667-42.666667-42.666667h-8.533333c-46.933333 0-85.333333-25.6-102.4-68.266666 0-4.266667-4.266667-8.533333-4.266667-12.8-12.8-38.4-4.266667-85.333333 25.6-115.2 21.333333-21.333333 21.333333-46.933333 4.266667-64-8.533333-8.533333-17.066667-12.8-29.866667-12.8-12.8 0-21.333333 4.266667-29.866667 12.8-34.133333 34.133333-85.333333 42.666667-128 25.6S554.666667 174.933333 554.666667 132.266667c0-29.866667-17.066667-46.933333-42.666667-46.933334s-42.666667 17.066667-42.666667 42.666667v8.533333c0 46.933333-25.6 85.333333-68.266666 102.4-4.266667 0-8.533333 4.266667-12.8 4.266667-38.4 12.8-85.333333 4.266667-115.2-25.6-21.333333-21.333333-46.933333-21.333333-64-4.266667-17.066667 17.066667-17.066667 42.666667 0 59.733334 34.133333 34.133333 42.666667 85.333333 25.6 128S179.2 469.333333 132.266667 473.6H128c-25.6 0-42.666667 17.066667-42.666667 42.666667s17.066667 42.666667 42.666667 42.666666h8.533333c46.933333 0 85.333333 25.6 102.4 68.266667 17.066667 42.666667 8.533333 89.6-21.333333 123.733333-12.8 12.8-17.066667 21.333333-17.066667 34.133334 0 12.8 4.266667 21.333333 12.8 29.866666 17.066667 17.066667 42.666667 17.066667 59.733334 0 25.6-25.6 55.466667-34.133333 81.066666-34.133333zM827.733333 640z" p-id="2216"></path></svg>