<svg xmlns="http://www.w3.org/2000/svg" fill="none" viewBox="0 0 1024 1024" height="1024" width="1024">
<g clip-path="url(#clip0_1513_110780)">
<ellipse fill="url(#paint0_linear_1513_110780)" ry="127.5" rx="467" cy="762.5" cx="506"></ellipse>
<path fill="url(#paint1_linear_1513_110780)" d="M230.457 615.502C230.457 615.502 230.233 614.922 229.928 615.542C227.184 621.122 202.334 681.566 200.362 728.218C200.362 728.218 196.215 755.02 230.965 754.665C259.973 754.37 259.2 729.662 259.099 721.337C258.702 687.573 230.457 615.502 230.457 615.502Z"></path>
<path fill="url(#paint2_linear_1513_110780)" d="M229.664 784.343C229.105 784.343 228.647 783.886 228.647 783.327V631.754C228.647 631.195 229.105 630.737 229.664 630.737C230.223 630.737 230.68 631.195 230.68 631.754V783.327C230.68 783.896 230.223 784.343 229.664 784.343Z"></path>
<path fill="url(#paint3_linear_1513_110780)" d="M869.35 810.661C876.541 808.4 883.517 805.446 889.874 797.176C891.178 795.482 892.404 793.311 891.689 791.283C891.151 789.757 889.594 788.778 888.013 788.529C887.424 788.442 886.827 788.426 886.234 788.48H886.228C885.316 788.574 884.415 788.754 883.536 789.015L883.285 789.089C879.09 790.299 875.093 792.13 871.425 794.524C871.093 794.738 870.698 794.833 870.306 794.792C869.914 794.75 869.548 794.576 869.266 794.296C868.984 794.017 868.804 793.649 868.754 793.252C868.704 792.855 868.789 792.453 868.993 792.111C869.367 791.491 869.803 790.911 870.292 790.38C871.015 789.613 871.807 788.916 872.657 788.299C873.788 787.462 874.994 786.715 876.174 785.951C880.562 783.116 884.719 779.929 888.605 776.42C891.378 773.913 894.091 771.131 895.409 767.607C896.015 765.986 896.291 764.117 895.568 762.547C894.376 759.968 890.999 759.245 888.237 759.78C883.398 760.721 879.532 764.32 876.104 767.908C873.261 770.889 870.075 774.189 865.99 774.372C865.294 774.439 864.594 774.296 863.977 773.963C862.812 773.247 862.512 771.588 862.927 770.271C863.343 768.953 864.304 767.901 865.231 766.89C870.623 761.021 875.928 754.916 879.429 747.725C882.93 740.534 884.481 732.044 882.048 724.409C881.335 722.177 880.263 720.005 878.591 718.383C876.919 716.762 874.575 715.745 872.28 716.056C869.153 716.473 866.798 719.15 865.213 721.915C859.768 731.401 860.101 743.025 858.567 753.891C858.138 756.933 857.514 760.053 855.728 762.557C855.563 762.798 855.35 763 855.101 763.15C853.632 764.013 852.313 762.272 851.761 760.795C849.583 754.95 849.038 748.265 845.139 743.427C843.65 741.585 841.544 740.046 839.197 740.061C836.331 740.081 833.877 742.51 833.04 745.292C832.204 748.074 832.705 751.096 833.601 753.858C835.264 758.98 838.245 763.582 841.759 767.627C843.61 769.763 845.705 771.92 846.261 774.706C846.431 775.653 846.36 776.628 846.054 777.539C845.748 778.45 845.218 779.267 844.513 779.912C844.184 780.202 843.801 780.423 843.386 780.561C842.971 780.699 842.533 780.75 842.098 780.713C841.157 780.626 840.306 780.139 839.484 779.666C839.139 779.467 838.794 779.265 838.447 779.067C837.077 778.276 835.707 777.483 834.336 776.69C830.851 774.674 826.646 772.614 823.018 774.35C821.167 775.238 819.954 776.983 819.383 778.986C818.872 780.804 818.872 782.73 819.383 784.548C820.464 788.328 827.276 798.848 830.086 801.561C833.368 804.729 844.748 818.398 869.35 810.661Z"></path>
<path fill="url(#paint4_linear_1513_110780)" d="M649.638 740.684C650.38 738.632 650.88 736.312 651.021 733.581C651.097 732.138 650.946 730.46 649.772 729.604C648.888 728.959 647.648 729.008 646.674 729.474C646.314 729.65 645.975 729.869 645.667 730.126L645.663 730.129C645.193 730.529 644.761 730.974 644.373 731.455L644.261 731.592C642.394 733.869 640.875 736.417 639.754 739.152C639.651 739.399 639.468 739.602 639.235 739.729C639.001 739.856 638.73 739.899 638.467 739.851C638.203 739.802 637.962 739.666 637.782 739.464C637.603 739.262 637.495 739.006 637.478 738.737C637.448 738.249 637.468 737.759 637.537 737.276C637.644 736.573 637.817 735.882 638.053 735.213C638.302 734.488 638.6 733.776 638.897 733.067C638.968 732.898 639.038 732.73 639.108 732.561C640.46 729.305 641.548 725.941 642.363 722.501C642.944 720.045 643.385 717.458 642.767 714.99C642.483 713.856 641.92 712.709 640.917 712.11C639.267 711.129 637.113 712.017 635.783 713.37C633.455 715.744 632.686 719.226 632.155 722.535C631.718 725.282 631.212 728.339 629.013 730.001C628.651 730.304 628.208 730.492 627.737 730.543C626.815 730.589 626.013 729.779 625.739 728.886C625.465 727.994 625.596 727.04 625.724 726.122C626.471 720.792 627.08 715.364 626.27 710.019C625.46 704.675 623.069 699.352 618.792 696.028C617.541 695.056 616.113 694.256 614.563 693.991C613.012 693.727 611.32 694.056 610.164 695.106C608.586 696.534 608.303 698.925 608.482 701.071C608.942 706.634 611.7 711.617 614.449 716.583C615.34 718.193 616.23 719.801 617.041 721.426C617.968 723.285 618.816 725.262 618.783 727.34C618.784 727.537 618.743 727.731 618.662 727.909C618.177 728.952 616.777 728.486 615.904 727.874C614.781 727.084 613.72 726.179 612.661 725.276C610.467 723.405 608.281 721.54 605.57 720.728C604.037 720.27 602.277 720.217 600.979 721.122C599.394 722.229 598.961 724.52 599.562 726.389C600.163 728.259 601.599 729.751 603.155 730.948C606.042 733.166 609.462 734.591 612.964 735.502C613.144 735.549 613.325 735.595 613.507 735.641C615.193 736.072 616.935 736.516 618.178 737.726C618.635 738.189 618.969 738.759 619.148 739.384C619.328 740.008 619.346 740.666 619.201 741.294C619.13 741.582 619.001 741.852 618.824 742.087C618.646 742.322 618.422 742.518 618.166 742.664C617.61 742.975 616.95 743.029 616.312 743.079C616.226 743.086 616.14 743.092 616.053 743.099C615.871 743.113 615.689 743.126 615.507 743.142C614.442 743.224 613.378 743.306 612.312 743.388C609.603 743.596 606.477 744.055 605.127 746.409C604.438 747.611 604.433 749.047 604.883 750.381C605.296 751.589 606.034 752.662 607.014 753.48C608.305 754.547 611.561 756.243 614.443 757.461C618.506 760.98 630.194 760.946 644.502 760.905C646.078 760.9 647.685 760.896 649.318 760.896C650.95 760.896 652.558 760.9 654.133 760.905C671.968 760.956 685.732 760.996 685.732 754.158C685.732 746.756 669.602 740.748 649.638 740.684Z" clip-rule="evenodd" fill-rule="evenodd"></path>
<path fill="#E0EFFB" d="M398.378 606.003C398.378 552.319 432.932 506.743 480.916 490.497C432.932 474.257 398.378 428.681 398.378 374.997V340.028H370.877C361.556 340.028 354 332.438 354 323.074V320.955C354 311.591 361.556 304 370.877 304H668.935C678.256 304 685.812 311.591 685.812 320.954V323.074C685.812 332.438 678.256 340.028 668.935 340.028H640.982V374.997C640.982 428.681 606.427 474.257 558.444 490.503C606.427 506.743 640.982 552.319 640.982 606.003V640.972H669.123C678.444 640.972 686 648.562 686 657.926V660.045C686 669.409 678.444 677 669.123 677H371.065C361.744 677 354.189 669.409 354.189 660.046V657.926C354.189 648.562 361.744 640.972 371.065 640.972H398.378V606.003Z"></path>
<path fill="#81C2FA" d="M613 637C613 673.451 565.362 656 514 656C462.638 656 427 673.451 427 637C427 600.549 467.638 557 519 557C570.362 557 613 600.549 613 637Z"></path>
<path fill="url(#paint5_linear_1513_110780)" d="M668.668 304C678.011 304 685.585 311.591 685.585 320.954V323.074C685.585 332.438 678.011 340.028 668.668 340.028H369.916C360.574 340.028 353 332.438 353 323.074V320.955C353 311.591 360.574 304 369.916 304H668.668V304ZM669.084 640.972C678.426 640.972 686 648.562 686 657.926V660.045C686 669.409 678.426 677 669.084 677H370.331C360.989 677 353.415 669.409 353.415 660.046V657.926C353.415 648.562 360.989 640.972 370.331 640.972H669.084V640.972Z"></path>
<ellipse fill-opacity="0.1" fill="#7D7D7D" ry="15.5" rx="56.5" cy="744.5" cx="380.5"></ellipse>
<path fill="url(#paint6_linear_1513_110780)" d="M388.138 590.092H362.863V615.366H388.138V590.092Z"></path>
<path fill="#FEE0BC" d="M402.423 582.636C404.608 583.518 407.573 581.276 409.047 577.628C410.521 573.98 409.946 570.307 407.761 569.424C405.577 568.542 402.611 570.784 401.137 574.432C399.663 578.08 400.239 581.753 402.423 582.636Z"></path>
<path fill="#FEE0BC" d="M348.175 582.595C346.006 583.516 343.001 581.326 341.464 577.704C339.926 574.082 340.438 570.4 342.607 569.479C344.776 568.559 347.78 570.749 349.318 574.37C350.855 577.992 350.343 581.675 348.175 582.595Z"></path>
<path fill="url(#paint7_linear_1513_110780)" d="M376.181 600.131C392.089 600.131 404.984 587.403 404.984 571.702C404.984 556.001 392.089 543.272 376.181 543.272C360.274 543.272 347.378 556.001 347.378 571.702C347.378 587.403 360.274 600.131 376.181 600.131Z"></path>
<path fill="url(#paint8_linear_1513_110780)" d="M404.119 573.743C414.43 559.996 409.275 525.629 374.907 525.629C340.54 525.629 333.667 561.714 347.414 573.743C352.568 558.278 398.964 558.278 404.119 573.743Z"></path>
<path fill="#585449" d="M410.191 557.658C409.554 572.537 393.77 555.533 374.3 555.533C354.829 555.533 337.984 574.237 338.408 555.533C338.408 535.812 355.466 521.95 374.937 521.95C394.407 521.95 411.034 537.955 410.191 557.658Z"></path>
<path fill="#747169" d="M408.724 562.119C408.724 565.75 393.233 564.876 374.123 564.876C355.013 564.876 339.521 565.75 339.521 562.119C339.521 558.487 355.013 552.998 374.123 552.998C393.233 552.998 408.724 558.487 408.724 562.119Z"></path>
<path fill="url(#paint9_linear_1513_110780)" d="M386.491 606.175C387.05 605.65 387.608 605.068 388.164 604.428L388.174 604.432C388.384 604.433 388.64 604.475 389.128 604.824C391.595 605.916 393.875 607.539 395.959 609.51C419.437 620.293 448.133 651.929 449.682 659.957C451.485 669.295 447.834 674.286 444.137 676.077C442.286 676.974 429.317 681.461 415.201 685.27C416.83 704.65 418.718 723.386 420.606 728.15C421.865 731.327 412.177 732.54 398.561 732.695C371.08 735.371 324.372 734.768 326.993 728.154C328.875 723.404 330.757 704.767 332.382 685.448C320.048 682.577 309.039 679.178 307.296 678.307C303.692 676.505 296.482 669.295 298.285 658.481C299.675 650.138 334.524 615.04 357.975 605.055C358.455 604.827 358.941 604.619 359.435 604.432L359.454 604.453C359.491 604.439 359.528 604.425 359.564 604.411C359.567 604.426 359.57 604.441 359.572 604.455C361.418 603.115 362.636 602.608 362.931 602.608C365.835 606.378 371.949 611.363 378.778 610.25C381.883 609.361 384.592 607.826 386.491 606.175ZM334.655 656.861C334.874 654.069 335.081 651.452 335.276 649.074C332.93 650.984 330.236 652.93 327.122 654.877C329.488 655.215 332.023 655.912 334.655 656.861ZM413.042 658.12C412.851 655.675 412.669 653.353 412.495 651.194C414.72 652.904 417.239 654.639 420.105 656.375C417.878 656.683 415.505 657.292 413.042 658.12Z" clip-rule="evenodd" fill-rule="evenodd"></path>
<path fill="#FB955B" d="M391.434 605.947C391.434 605.947 389.643 604.093 387.853 604.093C378.206 614.08 367.28 607.14 362.782 602.24C362.613 602.048 360.991 602.238 359.2 604.093C374.959 618.925 387.256 611.509 391.434 605.947Z"></path>
<path fill="#FEE4C3" d="M334.332 746.796L331.538 734.637L317.4 737.47L319.526 748.074L334.332 746.796Z"></path>
<path fill="#7B7B7B" d="M321.766 736.133C318.964 740.512 320.757 746.368 322.003 748.748C318.467 752.42 303.692 755.992 303.692 746.802C303.691 737.784 312.722 734.501 321.766 736.133Z"></path>
<path fill="#FEE4C3" d="M415.233 746.796L418.027 734.637L432.165 737.47L430.04 748.074L415.233 746.796Z"></path>
<path fill="#7B7B7B" d="M427.798 736.133C430.6 740.512 428.808 746.368 427.561 748.748C431.097 752.42 445.872 755.992 445.873 746.802C445.873 737.784 436.842 734.501 427.798 736.133Z"></path>
<path fill="#DCDCDC" d="M426.623 696.181C426.623 696.181 446.29 692.531 452.543 706.678C457.11 723.22 440.502 727.377 440.502 727.377L427.51 729.924L421.852 749.064L375.903 740.046L329.917 749.064L324.251 729.908L311.397 727.387C311.397 727.387 293 720.449 299.37 706.697C307.428 689.3 325.262 696.204 325.262 696.204L375.881 710.561L426.623 696.181Z"></path>
<path fill="url(#paint10_linear_1513_110780)" d="M330.263 637.979C330.263 637.426 330.71 636.979 331.263 636.979H415.708C416.26 636.979 416.708 637.426 416.708 637.979V698.15H330.263V637.979Z"></path>
<rect fill="url(#paint11_linear_1513_110780)" rx="2" height="5.49441" width="94.1376" y="698.149" x="326.967"></rect>
<path fill="url(#paint12_linear_1513_110780)" d="M774.5 291.455C776.513 291.455 778.444 292.254 779.868 293.678C781.291 295.101 782.091 297.032 782.091 299.045V329.409C782.091 331.422 781.291 333.353 779.868 334.777C778.444 336.2 776.513 337 774.5 337C772.487 337 770.556 336.2 769.132 334.777C767.709 333.353 766.909 331.422 766.909 329.409V299.045C766.909 297.032 767.709 295.101 769.132 293.678C770.556 292.254 772.487 291.455 774.5 291.455V291.455ZM747.659 280.341C749.082 281.765 749.881 283.695 749.881 285.708C749.881 287.721 749.082 289.651 747.659 291.075L726.191 312.542C725.491 313.267 724.654 313.845 723.727 314.243C722.801 314.641 721.805 314.85 720.797 314.859C719.789 314.868 718.79 314.676 717.857 314.294C716.924 313.913 716.077 313.349 715.364 312.636C714.651 311.923 714.087 311.076 713.706 310.143C713.324 309.21 713.132 308.211 713.141 307.203C713.15 306.195 713.359 305.199 713.757 304.273C714.155 303.346 714.733 302.509 715.458 301.809L736.925 280.341C738.349 278.918 740.279 278.119 742.292 278.119C744.305 278.119 746.235 278.918 747.659 280.341V280.341ZM812.075 280.341L833.542 301.809C834.925 303.24 835.69 305.158 835.673 307.148C835.655 309.138 834.857 311.042 833.45 312.45C832.042 313.857 830.138 314.655 828.148 314.673C826.158 314.69 824.24 313.925 822.809 312.542L801.341 291.075C799.959 289.643 799.194 287.726 799.211 285.736C799.228 283.745 800.027 281.841 801.434 280.434C802.841 279.027 804.745 278.228 806.736 278.211C808.726 278.194 810.643 278.959 812.075 280.341ZM728.955 245.909C730.968 245.909 732.899 246.709 734.322 248.132C735.746 249.556 736.545 251.487 736.545 253.5C736.545 255.513 735.746 257.444 734.322 258.868C732.899 260.291 730.968 261.091 728.955 261.091H698.591C696.578 261.091 694.647 260.291 693.223 258.868C691.8 257.444 691 255.513 691 253.5C691 251.487 691.8 249.556 693.223 248.132C694.647 246.709 696.578 245.909 698.591 245.909H728.955ZM850.409 245.909C852.422 245.909 854.353 246.709 855.777 248.132C857.2 249.556 858 251.487 858 253.5C858 255.513 857.2 257.444 855.777 258.868C854.353 260.291 852.422 261.091 850.409 261.091H820.045C818.032 261.091 816.101 260.291 814.678 258.868C813.254 257.444 812.455 255.513 812.455 253.5C812.455 251.487 813.254 249.556 814.678 248.132C816.101 246.709 818.032 245.909 820.045 245.909H850.409ZM833.542 194.458C834.965 195.881 835.765 197.812 835.765 199.825C835.765 201.838 834.965 203.768 833.542 205.191L812.075 226.659C810.643 228.041 808.726 228.806 806.736 228.789C804.745 228.772 802.841 227.973 801.434 226.566C800.027 225.159 799.228 223.255 799.211 221.264C799.194 219.274 799.959 217.357 801.341 215.925L822.809 194.458C824.232 193.035 826.162 192.235 828.175 192.235C830.188 192.235 832.119 193.035 833.542 194.458V194.458ZM726.191 194.458L747.659 215.925C748.384 216.625 748.962 217.463 749.36 218.389C749.758 219.315 749.967 220.311 749.976 221.319C749.984 222.327 749.792 223.327 749.411 224.259C749.029 225.192 748.465 226.04 747.753 226.753C747.04 227.465 746.192 228.029 745.259 228.411C744.327 228.792 743.327 228.984 742.319 228.976C741.311 228.967 740.315 228.758 739.389 228.36C738.463 227.962 737.625 227.384 736.925 226.659L715.458 205.191C714.075 203.76 713.31 201.842 713.327 199.852C713.345 197.862 714.143 195.958 715.55 194.55C716.958 193.143 718.862 192.345 720.852 192.327C722.842 192.31 724.76 193.075 726.191 194.458V194.458ZM774.5 170C776.513 170 778.444 170.8 779.868 172.223C781.291 173.647 782.091 175.578 782.091 177.591V207.955C782.091 209.968 781.291 211.899 779.868 213.322C778.444 214.746 776.513 215.545 774.5 215.545C772.487 215.545 770.556 214.746 769.132 213.322C767.709 211.899 766.909 209.968 766.909 207.955V177.591C766.909 175.578 767.709 173.647 769.132 172.223C770.556 170.8 772.487 170 774.5 170Z"></path>
</g>
<defs>
<linearGradient gradientUnits="userSpaceOnUse" y2="890" x2="506" y1="635" x1="506" id="paint0_linear_1513_110780">
<stop stop-color="#BDDFFF"></stop>
<stop stop-opacity="0" stop-color="white" offset="0.95892"></stop>
</linearGradient>
<linearGradient gradientUnits="userSpaceOnUse" y2="615.257" x2="229.66" y1="754.678" x1="229.66" id="paint1_linear_1513_110780">
<stop stop-color="#5FB2FF"></stop>
<stop stop-color="#DFF0FF" offset="0.7893"></stop>
</linearGradient>
<linearGradient gradientUnits="userSpaceOnUse" y2="784.347" x2="229.661" y1="630.738" x1="229.661" id="paint2_linear_1513_110780">
<stop stop-color="#DFF0FF"></stop>
<stop stop-color="#A2D2FF" offset="0.818"></stop>
</linearGradient>
<linearGradient gradientUnits="userSpaceOnUse" y2="802.968" x2="847.534" y1="720.042" x1="883.842" id="paint3_linear_1513_110780">
<stop stop-color="#C4E3FF" offset="0.365159"></stop>
<stop stop-color="#5FB2FF" offset="1"></stop>
</linearGradient>
<linearGradient gradientUnits="userSpaceOnUse" y2="696.911" x2="605.494" y1="778.74" x1="649.318" id="paint4_linear_1513_110780">
<stop stop-color="#97CDFF" offset="0.568288"></stop>
<stop stop-color="#5FB2FF" offset="1"></stop>
</linearGradient>
<linearGradient gradientUnits="userSpaceOnUse" y2="646.727" x2="206.755" y1="200" x1="686" id="paint5_linear_1513_110780">
<stop stop-color="#6CB8FF"></stop>
<stop stop-color="#B1D9FF" offset="0.865168"></stop>
</linearGradient>
<linearGradient gradientUnits="userSpaceOnUse" y2="615.366" x2="375.5" y1="593.358" x1="375.5" id="paint6_linear_1513_110780">
<stop stop-color="#FFCDA5"></stop>
<stop stop-color="#FFE8D1" offset="1"></stop>
</linearGradient>
<linearGradient gradientUnits="userSpaceOnUse" y2="600.131" x2="376.181" y1="543.272" x1="376.181" id="paint7_linear_1513_110780">
<stop stop-color="#FFF2DF"></stop>
<stop stop-color="#FEE0BC" offset="1"></stop>
</linearGradient>
<linearGradient gradientUnits="userSpaceOnUse" y2="579.657" x2="358.148" y1="540.753" x1="396.189" id="paint8_linear_1513_110780">
<stop stop-color="#777CA7"></stop>
<stop stop-color="#636681" offset="1"></stop>
</linearGradient>
<linearGradient gradientUnits="userSpaceOnUse" y2="749.353" x2="384.874" y1="591.568" x1="425.773" id="paint9_linear_1513_110780">
<stop stop-color="#FFE194"></stop>
<stop stop-color="#FFBF84" offset="1"></stop>
</linearGradient>
<linearGradient gradientUnits="userSpaceOnUse" y2="690.962" x2="358.001" y1="640.104" x1="392.552" id="paint10_linear_1513_110780">
<stop stop-color="#94CBFF"></stop>
<stop stop-color="#DCEEFF" offset="1"></stop>
</linearGradient>
<linearGradient gradientUnits="userSpaceOnUse" y2="703.644" x2="374.036" y1="698.149" x1="374.036" id="paint11_linear_1513_110780">
<stop stop-color="#94CBFF"></stop>
<stop stop-color="#DCEEFF" offset="1"></stop>
</linearGradient>
<linearGradient gradientUnits="userSpaceOnUse" y2="304.871" x2="701.011" y1="178.533" x1="811.334" id="paint12_linear_1513_110780">
<stop stop-color="#6CB8FF"></stop>
<stop stop-color="#BDDFFF" offset="0.781833"></stop>
</linearGradient>
<clipPath id="clip0_1513_110780">
<rect fill="white" height="1024" width="1024"></rect>
</clipPath>
</defs>
</svg>
